<svg width="20" height="21" viewBox="0 0 20 21" fill="none" xmlns="http://www.w3.org/2000/svg">
<path d="M2.5 11.4064C2.5 11.3422 2.5 11.3097 2.50167 11.2831C2.5148 11.0812 2.60093 10.891 2.74399 10.7479C2.88705 10.6048 3.07727 10.5187 3.27917 10.5056C3.30667 10.5039 3.3375 10.5039 3.4025 10.5039H16.5975C16.6617 10.5039 16.6933 10.5039 16.7208 10.5056C16.9227 10.5187 17.1129 10.6048 17.256 10.7479C17.3991 10.891 17.4852 11.0812 17.4983 11.2831C17.5 11.3097 17.5 11.3414 17.5 11.4064C17.5 11.7356 17.5 11.9006 17.4883 12.0856C17.3142 14.8247 14.9858 17.2431 12.255 17.5189C12.0708 17.5381 11.9633 17.5422 11.7483 17.5506C11.1658 17.5735 10.583 17.5857 10 17.5872C9.45833 17.5872 8.86333 17.5731 8.25167 17.5506C8.03667 17.5422 7.92917 17.5381 7.74583 17.5197C5.01417 17.2431 2.68583 14.8247 2.5125 12.0856C2.5 11.9006 2.5 11.7356 2.5 11.4064Z" stroke="black" stroke-width="1.07143"/>
<path d="M4.99935 17.1706L4.16602 18.8372M14.9993 17.1706L15.8327 18.8372M1.66602 10.5039H18.3327" stroke="black" stroke-width="1.07143" stroke-linecap="round"/>
<path d="M1.875 11.3346C1.875 11.5004 1.94085 11.6594 2.05806 11.7766C2.17527 11.8938 2.33424 11.9596 2.5 11.9596C2.66576 11.9596 2.82473 11.8938 2.94194 11.7766C3.05915 11.6594 3.125 11.5004 3.125 11.3346H1.875ZM5.28833 7.7863L4.70667 8.01547C4.73743 8.09325 4.7835 8.16407 4.84214 8.22372C4.90078 8.28337 4.9708 8.33065 5.04804 8.36274C5.12529 8.39483 5.20819 8.4111 5.29184 8.41056C5.37548 8.41003 5.45817 8.39271 5.535 8.35963L5.28833 7.7863ZM10.255 5.64714L10.5025 6.22213C10.6517 6.15789 10.7699 6.03811 10.8323 5.88816C10.8947 5.73822 10.8963 5.56988 10.8367 5.4188L10.255 5.64714ZM3.125 11.3346V4.15547H1.875V11.3346H3.125ZM4.4875 2.79297C5.045 2.79297 5.54583 3.13214 5.7525 3.64964L6.91333 3.18464C6.7195 2.6999 6.38489 2.28519 5.95265 1.99243C5.52042 1.69967 5.01038 1.54312 4.48833 1.54297L4.4875 2.79297ZM3.125 4.15547C3.125 3.40297 3.735 2.79297 4.4875 2.79297L4.48833 1.54297C3.79546 1.54297 3.13012 1.81821 2.64018 2.30815C2.15024 2.79809 1.875 3.46259 1.875 4.15547H3.125ZM5.7525 3.64964L6.06917 4.43964L7.22917 3.97547L6.91333 3.18464L5.7525 3.64964ZM5.86917 7.55713C5.65963 7.02286 5.6638 6.42842 5.88083 5.89713L4.7225 5.4263C4.38447 6.25516 4.37934 7.18233 4.70667 8.01547L5.86917 7.55713ZM10.0083 5.0738L5.04083 7.21214L5.535 8.35963L10.5017 6.2213L10.0083 5.0738ZM8.56833 4.72463C9.08667 4.9463 9.4725 5.36547 9.67417 5.8763L10.8367 5.4188C10.6778 5.00892 10.4389 4.63398 10.1339 4.31748C9.82882 4.00098 9.46375 3.74845 9.06 3.57464L8.56833 4.72463ZM5.88083 5.89713C6.07664 5.40519 6.44774 5.00405 6.9225 4.76964L6.37583 3.6463C5.62384 4.01514 5.03492 4.64918 4.7225 5.4263L5.88083 5.89713ZM6.9225 4.76964C7.17735 4.64378 7.45644 4.57466 7.74057 4.56703C8.0247 4.55941 8.3071 4.61263 8.56833 4.72463L9.06 3.57464C8.6339 3.39239 8.17345 3.30519 7.71017 3.31742C7.24689 3.32964 6.79173 3.44183 6.37583 3.6463L6.9225 4.76964Z" fill="black"/>
</svg>
