<svg width="23" height="23" viewBox="0 0 23 23" fill="none" xmlns="http://www.w3.org/2000/svg">
<path d="M2.15625 18.6875V13.6562C2.1585 12.8944 2.46213 12.1645 3.00081 11.6258C3.53949 11.0871 4.26945 10.7835 5.03125 10.7812H17.9688C18.7306 10.7835 19.4605 11.0871 19.9992 11.6258C20.5379 12.1645 20.8415 12.8944 20.8438 13.6562V18.6875M17.25 10.7812H4.3125V6.10938C4.31392 5.63325 4.50369 5.17703 4.84036 4.84036C5.17703 4.50369 5.63325 4.31392 6.10938 4.3125H16.8906C17.3667 4.31392 17.823 4.50369 18.1596 4.84036C18.4963 5.17703 18.6861 5.63325 18.6875 6.10938V10.7812H17.25Z" stroke="black" stroke-width="1.23214" stroke-linecap="round" stroke-linejoin="round"/>
<path d="M2.15625 18.6875V18.3281C2.15708 18.0424 2.27093 17.7687 2.47294 17.5667C2.67495 17.3647 2.94869 17.2508 3.23438 17.25H19.7656C20.0513 17.2508 20.3251 17.3647 20.5271 17.5667C20.7291 17.7687 20.8429 18.0424 20.8438 18.3281V18.6875M5.03125 10.7812V10.0625C5.03232 9.68158 5.18411 9.31657 5.45346 9.04721C5.72282 8.77786 6.08783 8.62607 6.46875 8.625H10.0625C10.4434 8.62607 10.8084 8.77786 11.0778 9.04721C11.3471 9.31657 11.4989 9.68158 11.5 10.0625M11.5 10.0625V10.7812M11.5 10.0625C11.5011 9.68158 11.6529 9.31657 11.9222 9.04721C12.1916 8.77786 12.5566 8.62607 12.9375 8.625H16.5312C16.9122 8.62607 17.2772 8.77786 17.5465 9.04721C17.8159 9.31657 17.9677 9.68158 17.9688 10.0625V10.7812" stroke="black" stroke-width="1.23214" stroke-linecap="round" stroke-linejoin="round"/>
</svg>
