<svg width="18" height="21" viewBox="0 0 18 21" fill="none" xmlns="http://www.w3.org/2000/svg">
<path d="M17.2225 5.1831L9.66 1.04521C9.45794 0.933564 9.23086 0.875 9 0.875C8.76914 0.875 8.54206 0.933564 8.34 1.04521L0.7775 5.18482C0.561529 5.30299 0.381245 5.47697 0.255474 5.68861C0.129703 5.90024 0.0630588 6.14176 0.0625 6.38795V14.607C0.0630588 14.8532 0.129703 15.0947 0.255474 15.3063C0.381245 15.518 0.561529 15.692 0.7775 15.8101L8.34 19.9497C8.54206 20.0614 8.76914 20.12 9 20.12C9.23086 20.12 9.45794 20.0614 9.66 19.9497L17.2225 15.8101C17.4385 15.692 17.6188 15.518 17.7445 15.3063C17.8703 15.0947 17.9369 14.8532 17.9375 14.607V6.38881C17.9374 6.14218 17.871 5.90013 17.7452 5.688C17.6194 5.47587 17.4389 5.30148 17.2225 5.1831ZM9 2.24834L15.9042 6.02959L9 9.81084L2.09578 6.02959L9 2.24834ZM1.4375 7.23271L8.3125 10.9951V18.3676L1.4375 14.6079V7.23271ZM9.6875 18.3676V10.9985L16.5625 7.23271V14.6044L9.6875 18.3676Z" fill="black"/>
</svg>
