<svg width="22" height="22" viewBox="0 0 22 22" fill="none" xmlns="http://www.w3.org/2000/svg">
<path d="M21.5799 4.546L17.6665 0.612662C17.4079 0.355372 17.058 0.210937 16.6932 0.210938C16.3284 0.210938 15.9785 0.355372 15.7199 0.612662L1.84652 14.466L0.579855 19.9327C0.536159 20.1325 0.537657 20.3396 0.584239 20.5388C0.630821 20.7379 0.721311 20.9242 0.849097 21.0839C0.976883 21.2437 1.13874 21.3728 1.32284 21.462C1.50694 21.5512 1.70863 21.5981 1.91319 21.5993C2.00847 21.6096 2.10458 21.6096 2.19986 21.5993L7.72652 20.3327L21.5799 6.49266C21.8371 6.23407 21.9816 5.88412 21.9816 5.51933C21.9816 5.15454 21.8371 4.80459 21.5799 4.546ZM7.05986 19.1327L1.87985 20.2193L3.05985 15.1393L13.4399 4.79933L17.4399 8.79933L7.05986 19.1327ZM18.3332 7.83266L14.3332 3.83266L16.6532 1.526L20.5865 5.526L18.3332 7.83266Z" fill="black"/>
</svg>
